<?xml version="1.0" standalone="no"?>
<!DOCTYPE svg PUBLIC "-//W3C//DTD SVG 20010904//EN"
 "http://www.w3.org/TR/2001/REC-SVG-20010904/DTD/svg10.dtd">
<svg version="1.0" xmlns="http://www.w3.org/2000/svg"
 width="512.000000pt" height="512.000000pt" viewBox="0 0 512.000000 512.000000"
 preserveAspectRatio="xMidYMid meet">

<g transform="translate(0.000000,512.000000) scale(0.100000,-0.100000)"
fill="#000000" stroke="none">
<path d="M2487 5110 c-105 -18 -206 -87 -268 -183 l-38 -59 20 -41 c12 -22 43
-64 70 -92 155 -164 423 -164 578 0 27 28 58 70 70 92 l20 41 -38 59 c-62 97
-146 154 -257 178 -76 16 -87 16 -157 5z"/>
<path d="M2080 4553 c-29 -11 -67 -38 -107 -78 -51 -52 -64 -72 -82 -129 -19
-61 -21 -92 -21 -317 0 -137 2 -249 4 -249 3 0 40 17 83 39 63 31 152 64 260
96 8 3 12 64 15 217 3 182 6 218 21 246 l18 33 -31 36 c-17 19 -41 55 -53 79
-24 49 -35 52 -107 27z"/>
<path d="M589 4027 c-195 -55 -325 -259 -291 -455 17 -94 54 -163 127 -230 87
-82 149 -106 276 -107 90 0 99 2 171 38 88 43 152 107 195 195 26 52 28 67 28
167 0 97 -3 116 -26 165 -40 84 -108 154 -194 196 -62 31 -85 37 -157 40 -50
2 -101 -1 -129 -9z"/>
<path d="M4327 4030 c-135 -35 -248 -142 -292 -279 -26 -80 -17 -208 19 -283
42 -87 105 -152 194 -195 72 -36 81 -38 171 -38 135 1 193 25 287 119 53 53
76 85 91 126 78 209 -5 424 -201 520 -54 27 -79 33 -148 36 -46 2 -100 -1
-121 -6z"/>
<path d="M3102 3391 c-16 -53 -15 -126 3 -160 20 -40 69 -79 115 -91 50 -14
107 0 150 36 37 31 49 53 66 116 l12 48 -41 11 c-106 28 -264 70 -278 75 -11
3 -19 -6 -27 -35z"/>
<path d="M1217 2580 c-16 -5 -34 -13 -40 -18 -7 -6 -106 -64 -221 -131 -115
-67 -228 -137 -252 -156 -87 -72 -134 -227 -102 -335 l14 -45 59 3 c223 11
420 -165 433 -388 5 -93 -12 -160 -63 -244 l-36 -59 33 -34 c18 -19 61 -48 95
-65 52 -25 74 -30 135 -30 40 0 91 6 113 14 22 8 137 70 256 138 l216 125 -77
52 c-227 152 -408 375 -513 633 -53 129 -53 135 -14 159 34 21 34 21 103 1 38
-10 72 -16 76 -12 10 11 91 322 85 328 -7 7 -199 62 -239 68 -18 3 -46 1 -61
-4z"/>
<path d="M356 1703 c-44 -67 -59 -121 -59 -218 0 -70 5 -102 22 -145 33 -80
84 -144 152 -189 73 -49 111 -61 209 -68 l76 -5 31 58 c86 164 64 338 -57 468
-84 89 -191 136 -311 136 -34 0 -42 -5 -63 -37z"/>
<path d="M4604 1730 c-119 -24 -252 -136 -294 -246 -44 -119 -37 -234 23 -346
l30 -58 57 0 c127 0 264 71 333 172 55 80 70 130 70 233 0 97 -15 151 -59 218
-23 34 -27 37 -72 36 -26 -1 -66 -5 -88 -9z"/>
<path d="M2438 491 c-31 -10 -72 -28 -91 -40 -46 -28 -121 -109 -146 -159
l-20 -40 38 -59 c162 -251 520 -251 682 0 l38 59 -20 40 c-87 170 -298 257
-481 199z"/>
</g>
</svg>
